<svg width="20" height="21" viewBox="0 0 20 21" fill="none" xmlns="http://www.w3.org/2000/svg">
<g filter="url(#filter0_d_11_303)">
<path fill-rule="evenodd" clip-rule="evenodd" d="M5.60427 9.02094C6.15125 8.47396 6.89312 8.16667 7.66667 8.16667H12.3333C13.1069 8.16667 13.8487 8.47396 14.3957 9.02094C14.9427 9.56792 15.25 10.3098 15.25 11.0833V12.25C15.25 12.5722 14.9888 12.8333 14.6667 12.8333C14.3445 12.8333 14.0833 12.5722 14.0833 12.25V11.0833C14.0833 10.6192 13.899 10.1741 13.5708 9.8459C13.2426 9.51771 12.7975 9.33333 12.3333 9.33333H7.66667C7.20254 9.33333 6.75742 9.51771 6.42923 9.8459C6.10104 10.1741 5.91667 10.6192 5.91667 11.0833V12.25C5.91667 12.5722 5.6555 12.8333 5.33333 12.8333C5.01117 12.8333 4.75 12.5722 4.75 12.25V11.0833C4.75 10.3098 5.05729 9.56792 5.60427 9.02094Z" fill="white"/>
<path fill-rule="evenodd" clip-rule="evenodd" d="M9.99992 2.33333C9.03342 2.33333 8.24992 3.11684 8.24992 4.08333C8.24992 5.04983 9.03342 5.83333 9.99992 5.83333C10.9664 5.83333 11.7499 5.04983 11.7499 4.08333C11.7499 3.11684 10.9664 2.33333 9.99992 2.33333ZM7.08325 4.08333C7.08325 2.4725 8.38909 1.16667 9.99992 1.16667C11.6107 1.16667 12.9166 2.4725 12.9166 4.08333C12.9166 5.69417 11.6107 7 9.99992 7C8.38909 7 7.08325 5.69417 7.08325 4.08333Z" fill="white"/>
</g>
<defs>
<filter id="filter0_d_11_303" x="-1" y="0" width="22" height="22" filterUnits="userSpaceOnUse" color-interpolation-filters="sRGB">
<feFlood flood-opacity="0" result="BackgroundImageFix"/>
<feColorMatrix in="SourceAlpha" type="matrix" values="0 0 0 0 0 0 0 0 0 0 0 0 0 0 0 0 0 0 127 0" result="hardAlpha"/>
<feOffset dy="4"/>
<feGaussianBlur stdDeviation="2"/>
<feComposite in2="hardAlpha" operator="out"/>
<feColorMatrix type="matrix" values="0 0 0 0 0 0 0 0 0 0 0 0 0 0 0 0 0 0 0.25 0"/>
<feBlend mode="normal" in2="BackgroundImageFix" result="effect1_dropShadow_11_303"/>
<feBlend mode="normal" in="SourceGraphic" in2="effect1_dropShadow_11_303" result="shape"/>
</filter>
</defs>
</svg>
