<svg width="12" height="5" viewBox="0 0 12 5" fill="none" xmlns="http://www.w3.org/2000/svg">
<path fill-rule="evenodd" clip-rule="evenodd" d="M1.60427 1.02094C2.15125 0.473959 2.89312 0.166668 3.66667 0.166668H8.33333C9.10688 0.166668 9.84875 0.473959 10.3957 1.02094C10.9427 1.56792 11.25 2.30979 11.25 3.08333V4.25C11.25 4.57217 10.9888 4.83333 10.6667 4.83333C10.3445 4.83333 10.0833 4.57217 10.0833 4.25V3.08333C10.0833 2.61921 9.89896 2.17409 9.57077 1.8459C9.24258 1.51771 8.79746 1.33333 8.33333 1.33333H3.66667C3.20254 1.33333 2.75742 1.51771 2.42923 1.8459C2.10104 2.17409 1.91667 2.61921 1.91667 3.08333V4.25C1.91667 4.57217 1.6555 4.83333 1.33333 4.83333C1.01117 4.83333 0.75 4.57217 0.75 4.25V3.08333C0.75 2.30979 1.05729 1.56792 1.60427 1.02094Z" fill="white"/>
</svg>
